<?xml version="1.0" encoding="utf-8"?>
<!-- Generator: Adobe Illustrator 19.2.1, SVG Export Plug-In . SVG Version: 6.00 Build 0)  -->
<svg version="1.1" id="Layer_1" xmlns="http://www.w3.org/2000/svg" xmlns:xlink="http://www.w3.org/1999/xlink" x="0px" y="0px"
   viewBox="0 0 194.5 60.7" style="enable-background:new 0 0 194.5 60.7;" xml:space="preserve">
<style type="text/css">
  .st0{fill-rule:evenodd;clip-rule:evenodd;fill:#BAB1AA;}
</style>
<g id="Bed_Bath__x26__Beyond">
  <path class="st0" d="M0.1,37.7h10.5c4.8,0,9.7,1,9.7,6.3c0,2-1.1,3.9-3.3,4.6v0.2c2.7,0.9,4.4,2.7,4.4,5.4c0,4.7-4.8,6.2-9.1,6.2
    H0.1V37.7L0.1,37.7z M9.3,46.4c1.3,0,2.8-0.1,2.8-1.7c0-1.7-1.7-1.6-3-1.6H8.4v3.2H9.3L9.3,46.4z M8.4,54.9h1c1.5,0,3.6,0,3.6-1.9
    c0-1.9-2.3-1.9-3.8-1.9H8.4V54.9L8.4,54.9z"/>
  <polygon class="st0" points="22.9,37.7 41.2,37.7 41.2,43.9 32.9,43.9 32.9,46 40.5,46 40.5,51.9 32.9,51.9 32.9,54.1 41.5,54.1
    41.5,60.3 22.9,60.3 22.9,37.7 	"/>
  <path class="st0" d="M54,37.7l3.4,5.9h0.3c0.3-0.7,0.6-1.4,1-2.1l2.2-3.8h12.5L63,50.5v9.8H52.1v-9.8L41.4,37.7H54L54,37.7z"/>
  <path class="st0" d="M104.8,49c0,7.3-8.1,11.6-18.1,11.6c-10,0-18.1-4.3-18.1-11.6c0-7.1,8.2-11.7,18.1-11.7
    C96.6,37.3,104.8,41.9,104.8,49L104.8,49z M80.5,49.2c0,2.6,2.5,4.3,6.1,4.3c3.6,0,6.1-1.8,6.1-4.3c0-2.4-2.3-4.4-6.1-4.4
    C82.9,44.8,80.5,46.8,80.5,49.2L80.5,49.2z"/>
  <path class="st0" d="M143.5,37.7h18.8c17.1,0,30.2,3.3,30.2,11.6c0,6.7-10.7,11-25.6,11h-23.4V37.7L143.5,37.7z M162,53.5h1.1
    c6.1,0,10.9-1.3,10.9-4.2c0-3.2-4.1-4.5-10.9-4.5H162V53.5L162,53.5z"/>
  <path class="st0" d="M188.5,37.9c0-1.7,1.3-3,3-3c1.7,0,3,1.3,3,3c0,1.7-1.3,3-3,3C189.8,40.9,188.5,39.6,188.5,37.9L188.5,37.9z
     M194,37.9c0-1.4-1.2-2.5-2.6-2.5c-1.4,0-2.6,1.1-2.6,2.5c0,1.4,1.2,2.5,2.6,2.5C192.9,40.5,194,39.3,194,37.9L194,37.9z
     M192.9,39.6h-0.6l-1-1.5h-0.6v1.5h-0.5v-3.3h1.4c0.6,0,1.2,0.2,1.2,0.9c0,0.6-0.5,0.9-1,0.9L192.9,39.6L192.9,39.6z M191.4,37.6
    c0.4,0,1.1,0.1,1.1-0.4c0-0.3-0.4-0.4-0.8-0.4h-0.9v0.8H191.4L191.4,37.6z"/>
  <polygon class="st0" points="118.5,37.7 106.3,37.7 106.3,60.3 118.5,60.3 118.5,48.8 129.2,60.3 141.4,60.3 141.4,37.7
    129.2,37.7 129.2,49.4 118.5,37.7 	"/>
  <path class="st0" d="M0,1.3h3.7c5.6,0,11,1.5,11,8.2c0,2.2-1.2,4.7-3.2,5.7v0.1c3.5,0.6,6,4.1,6,7.6c0,6-5.1,8.4-10.4,8.4H0V1.3
    L0,1.3z M3.7,14.5h1c3.5,0,6.4-0.7,6.4-5c0-4.2-2.9-4.9-6.4-4.9h-1V14.5L3.7,14.5z M3.7,27.9h2.9c3.5,0,7.1-1,7.1-5.3
    c0-4.2-4.3-5.1-7.6-5.1H3.7V27.9L3.7,27.9z"/>
  <polygon class="st0" points="19.6,1.3 35.7,1.3 35.7,4.7 23.3,4.7 23.3,13.1 35.3,13.1 35.3,16.5 23.3,16.5 23.3,27.8 35.7,27.8
    35.7,31.2 19.6,31.2 19.6,1.3 	"/>
  <path class="st0" d="M39.2,1.3h6.2c9.2,0,16.8,4.8,16.8,14.8c0,10.2-7.5,15.1-16.9,15.1h-6.1V1.3L39.2,1.3z M42.9,27.8h1.3
    c7.6,0,14.2-2.9,14.2-11.6c0-8.7-6.6-11.6-14.2-11.6h-1.3V27.8L42.9,27.8z"/>
  <path class="st0" d="M72.7,1.3h3.7c5.6,0,11,1.5,11,8.2c0,2.2-1.2,4.7-3.2,5.7v0.1c3.5,0.6,6,4.1,6,7.6c0,6-5.1,8.4-10.4,8.4h-7
    V1.3L72.7,1.3z M76.4,14.5h1c3.5,0,6.4-0.7,6.4-5c0-4.2-2.9-4.9-6.4-4.9h-1V14.5L76.4,14.5z M76.4,27.9h2.9c3.5,0,7.1-1,7.1-5.3
    c0-4.2-4.3-5.1-7.6-5.1h-2.3V27.9L76.4,27.9z"/>
  <path class="st0" d="M97.3,23.7l-3.4,7.5h-4L104.2,0l14.3,31.2h-4l-3.4-7.5H97.3L97.3,23.7z M104.2,8.2l-5.3,12.1h10.6L104.2,8.2
    L104.2,8.2z"/>
  <polygon class="st0" points="125.1,31.2 121.3,31.2 121.3,4.7 114.2,4.7 114.2,1.3 132.2,1.3 132.2,4.7 125.1,4.7 125.1,31.2 	"/>
  <polygon class="st0" points="152.2,13.3 152.2,1.3 155.9,1.3 155.9,31.2 152.2,31.2 152.2,16.8 137.9,16.8 137.9,31.2 134.2,31.2
    134.2,1.3 137.9,1.3 137.9,13.3 152.2,13.3 	"/>
  <path class="st0" d="M183.8,27.2c-2.3,2.7-5.4,4.7-9,4.7c-5,0-9.2-3.7-9.2-8.8c0-3.8,2.4-5.9,5.2-7.9l1.9-1.4
    c-1.7-1.8-3.3-4-3.3-6.6c0-4.1,3-6.6,6.9-6.6c3.7,0,6.9,2.3,6.9,6.2c0,3.4-2.9,5.6-5.4,7.5l6.2,7.5l3.5-4.1l2.4,2.5l-3.7,4.3
    l5.4,6.6h-4.6L183.8,27.2L183.8,27.2z M174.6,16.7c-2.1,1.4-5.4,3.5-5.4,6.3c0,2.9,2.7,5.5,5.6,5.5c2.8,0,5-2.1,6.9-4l-6.6-8.1
    L174.6,16.7L174.6,16.7z M176.3,11.4c1.5-1.2,3.6-2.4,3.6-4.6c0-2.1-1.5-3.3-3.5-3.3c-1.8,0-3.3,1.3-3.3,3.2c0,1.5,0.9,2.6,1.8,3.7
    l1,1.3L176.3,11.4L176.3,11.4z"/>
</g>
</svg>
