<svg id="Layer_1" xmlns="http://www.w3.org/2000/svg" viewBox="0 0 194.5 60.7"><style>.st0{fill-rule:evenodd;clip-rule:evenodd;fill:#bab1aa}</style><g id="Bed_Bath__x26__Beyond"><path class="st0" d="M.1 37.7h10.5c4.8 0 9.7 1 9.7 6.3 0 2-1.1 3.9-3.3 4.6v.2c2.7.9 4.4 2.7 4.4 5.4 0 4.7-4.8 6.2-9.1 6.2H.1V37.7zm9.2 8.7c1.3 0 2.8-.1 2.8-1.7 0-1.7-1.7-1.6-3-1.6h-.7v3.2h.9v.1zm-.9 8.5h1c1.5 0 3.6 0 3.6-1.9s-2.3-1.9-3.8-1.9h-.8v3.8zM22.9 37.7h18.3v6.2h-8.3V46h7.6v5.9h-7.6v2.2h8.6v6.2H22.9V37.7zM54 37.7l3.4 5.9h.3c.3-.7.6-1.4 1-2.1l2.2-3.8h12.5L63 50.5v9.8H52.1v-9.8L41.4 37.7H54z"/><path class="st0" d="M104.8 49c0 7.3-8.1 11.6-18.1 11.6-10 0-18.1-4.3-18.1-11.6 0-7.1 8.2-11.7 18.1-11.7 9.9 0 18.1 4.6 18.1 11.7zm-24.3.2c0 2.6 2.5 4.3 6.1 4.3 3.6 0 6.1-1.8 6.1-4.3 0-2.4-2.3-4.4-6.1-4.4-3.7 0-6.1 2-6.1 4.4zM143.5 37.7h18.8c17.1 0 30.2 3.3 30.2 11.6 0 6.7-10.7 11-25.6 11h-23.4V37.7zM162 53.5h1.1c6.1 0 10.9-1.3 10.9-4.2 0-3.2-4.1-4.5-10.9-4.5H162v8.7zM188.5 37.9c0-1.7 1.3-3 3-3s3 1.3 3 3-1.3 3-3 3-3-1.3-3-3zm5.5 0c0-1.4-1.2-2.5-2.6-2.5-1.4 0-2.6 1.1-2.6 2.5s1.2 2.5 2.6 2.5c1.5.1 2.6-1.1 2.6-2.5zm-1.1 1.7h-.6l-1-1.5h-.6v1.5h-.5v-3.3h1.4c.6 0 1.2.2 1.2.9 0 .6-.5.9-1 .9l1.1 1.5zm-1.5-2c.4 0 1.1.1 1.1-.4 0-.3-.4-.4-.8-.4h-.9v.8h.6zM118.5 37.7h-12.2v22.6h12.2V48.8l10.7 11.5h12.2V37.7h-12.2v11.7l-10.7-11.7zM0 1.3h3.7c5.6 0 11 1.5 11 8.2 0 2.2-1.2 4.7-3.2 5.7v.1c3.5.6 6 4.1 6 7.6 0 6-5.1 8.4-10.4 8.4H0v-30zm3.7 13.2h1c3.5 0 6.4-.7 6.4-5 0-4.2-2.9-4.9-6.4-4.9h-1v9.9zm0 13.4h2.9c3.5 0 7.1-1 7.1-5.3 0-4.2-4.3-5.1-7.6-5.1H3.7v10.4zM19.6 1.3h16.1v3.4H23.3v8.4h12v3.4h-12v11.3h12.4v3.4H19.6V1.3zM39.2 1.3h6.2c9.2 0 16.8 4.8 16.8 14.8 0 10.2-7.5 15.1-16.9 15.1h-6.1V1.3zm3.7 26.5h1.3c7.6 0 14.2-2.9 14.2-11.6S51.8 4.6 44.2 4.6h-1.3v23.2zM72.7 1.3h3.7c5.6 0 11 1.5 11 8.2 0 2.2-1.2 4.7-3.2 5.7v.1c3.5.6 6 4.1 6 7.6 0 6-5.1 8.4-10.4 8.4h-7v-30h-.1zm3.7 13.2h1c3.5 0 6.4-.7 6.4-5 0-4.2-2.9-4.9-6.4-4.9h-1v9.9zm0 13.4h2.9c3.5 0 7.1-1 7.1-5.3 0-4.2-4.3-5.1-7.6-5.1h-2.3v10.4h-.1zM97.3 23.7l-3.4 7.5h-4L104.2 0l14.3 31.2h-4l-3.4-7.5H97.3zm6.9-15.5l-5.3 12.1h10.6l-5.3-12.1zM125.1 31.2h-3.8V4.7h-7.1V1.3h18v3.4h-7.1v26.5zM152.2 13.3v-12h3.7v29.9h-3.7V16.8h-14.3v14.4h-3.7V1.3h3.7v12h14.3zM183.8 27.2c-2.3 2.7-5.4 4.7-9 4.7-5 0-9.2-3.7-9.2-8.8 0-3.8 2.4-5.9 5.2-7.9l1.9-1.4c-1.7-1.8-3.3-4-3.3-6.6 0-4.1 3-6.6 6.9-6.6 3.7 0 6.9 2.3 6.9 6.2 0 3.4-2.9 5.6-5.4 7.5l6.2 7.5 3.5-4.1 2.4 2.5-3.7 4.3 5.4 6.6H187l-3.2-3.9zm-9.2-10.5c-2.1 1.4-5.4 3.5-5.4 6.3 0 2.9 2.7 5.5 5.6 5.5 2.8 0 5-2.1 6.9-4l-6.6-8.1-.5.3zm1.7-5.3c1.5-1.2 3.6-2.4 3.6-4.6 0-2.1-1.5-3.3-3.5-3.3-1.8 0-3.3 1.3-3.3 3.2 0 1.5.9 2.6 1.8 3.7l1 1.3.4-.3z"/></g></svg>