<svg id="Layer_1" xmlns="http://www.w3.org/2000/svg" viewBox="0 0 229.7 32.8"><style>.st0{fill-rule:evenodd;clip-rule:evenodd;fill:#bab1aa}</style><g id="Crate_and_Barrel"><path class="st0" d="M120.7 31.9l-2.3-2.8c-1.8 1.8-5.9 3.7-8.9 3.7-5.1 0-9.4-3.7-9.4-8.4 0-5.9 5.6-9.1 7.3-9.7-1.1-1.4-3.1-3.8-3.1-6.8.1-3.9 2.5-7 7.7-7 4.5 0 7.9 3 7.9 7.3 0 4.9-3.8 6.6-4.9 7.6l3.7 5.2c1-1.3 2-4.4 1.8-4.9h4.9s-.7 6.2-3.5 9.1l5.2 6.8h-6.4v-.1zm-8.5-26.4c-1.5 0-2.8 1.3-2.7 2.5.1 1.7 1.5 2.8 2.4 3.9 1.1-.8 3.1-2 3.1-3.8.1-1.3-1.1-2.6-2.8-2.6zm-1.8 13.1c-4.8 3.2-4.5 5.5-4.5 5.5 0 2.3 2.1 3.5 3.7 3.7 1.8 0 4.5-1.5 5.8-2.7l-5-6.5zM26.3 14.1c-1.1-4.5-5.2-8.2-10-8.2-6 0-10.5 4.8-10.4 10.5.1 5.6 4.5 10 10.4 10 5.6 0 8.9-4.1 9.6-6.8h5.9c-1.3 8.3-9.3 12.7-15.6 12.7C9 32.4 0 26.4 0 16.5 0 7 7.2 0 16.3 0 24 0 31.1 5.9 32.1 14.1h-5.8zM74.1 32.1c-4.6 0-5.5-3.4-5.5-5.2V13.2h-3V8.9h3V2.1h5.9v7h3.8v4.1h-3.8v12.2c0 3.1 3.8 2.1 4.4 2.3v4.4h-4.8zM39 21.7V32h-5.8V9.6h5.6v2.3c.8-1.1 2.5-2.4 4.4-3 1.3-.1 2.5 0 2.5 0v5.5c-2.9-.9-7 .4-6.7 7.3z"/><path class="st0" d="M83.3 22.1c0 3 2.8 5.2 5.8 5.2 2.1 0 3.4-.8 4.5-2.5h6c-.8 3.9-4.9 7.6-10.3 7.6-6.9 0-11.8-5.2-11.8-12.5 0-5.6 4.2-11.4 11.1-11.3 7.9.1 11.4 6.9 11.3 13.5H83.3zm5.2-8.9c-2.5-.1-4.9 1.8-4.9 4.6h9.8c0-2.7-2.3-4.6-4.9-4.6zM60.6 31.9c0 .1-.1-.8-.4-1.8-1 .8-3.2 2.5-6.8 2.5-3.9 0-8.4-2.4-8.4-7 0-2.8 1.8-6.5 8.2-7.3 3.7-.6 6.5-.3 6.6-2.3.1-.7-.6-3.1-4.2-3.1-1.7 0-3.8.6-4.2 3.2h-5.1c0-3.9 2.4-7.3 9.8-7.3 4.6 0 9.3 2 9.3 7v12.4c.1 1.3.6 3 1 3.7h-5.8zm-10.4-6.4c.1 2.4 3.2 2.8 3.8 2.5 0 0 3.1 0 4.5-1.5.8-1.1 1.3-2.5.8-5.6-5.6 1.2-9.1 1.7-9.1 4.6zM224.1 1.8h5.6v30.1h-5.6V1.8zM194.4 21.8v10.1h-5.8V9.7h5.6V12c1-1.1 2.5-2.5 4.4-3 1.4-.3 2.7 0 2.7 0v5.5c-3.3-.9-7.2.4-6.9 7.3zM180.5 21.8v10.1h-5.9V9.7h5.8V12c1-1.1 2.5-2.5 4.4-3 1.3-.3 2.5 0 2.5 0v5.5c-3-.9-7.1.4-6.8 7.3zM206.5 22.2c0 2.8 2.8 5.1 5.8 5.1 2 0 3.4-.7 4.5-2.5h5.9c-.7 3.9-4.8 7.6-10.1 7.6-6.8 0-11.8-5.2-11.8-12.4 0-5.6 4.2-11.4 11.1-11.3 7.7 0 11.4 6.9 11.1 13.5h-16.5zm5.3-9c-2.7 0-5.1 1.8-5.1 4.6h9.8c.1-2.6-2-4.6-4.7-4.6zM143.2 31.9h-15.8V1.7H141c4.6 0 9.4 2.1 9.4 7.7 0 4.6-3.7 5.6-4.5 6.3 2.7.8 5.6 3.4 5.6 8.3.1 5.4-5.1 7.9-8.3 7.9zm-3.4-25.4H133V14h6.5c1.4 0 4.8-.6 4.8-4.1 0-2.4-2.4-3.4-4.5-3.4zm0 11.9H133v8.9h7.2c1 0 4.8-.8 4.8-4.1 0-1.8-.4-4.8-5.2-4.8zM168.1 31.9c0 .1-.3-.8-.4-1.8-1 .8-3.2 2.5-6.8 2.5-3.9 0-8.4-2.4-8.4-7 0-2.8 1.8-6.3 8.3-7.3 3.4-.6 6.3-.3 6.5-2.3.1-.6-.6-3-4.2-3-1.7 0-3.7.4-4.1 3.2h-5.2c0-3.9 2.7-7.3 9.8-7.3 4.5 0 9.1 2 9.3 7v11.5c0 1 .4 3.5.8 4.4h-5.6v.1zm-9.7-6.4c0 2.4 3.2 2.8 3.8 2.5 0 0 3.1 0 4.4-1.5.8-1.1 1.1-2.4.8-5.6-5.5 1.3-9 1.7-9 4.6z"/></g></svg>