<?xml version="1.0" encoding="utf-8"?>
<!-- Generator: Adobe Illustrator 19.2.1, SVG Export Plug-In . SVG Version: 6.00 Build 0)  -->
<svg version="1.1" id="Layer_1" xmlns="http://www.w3.org/2000/svg" xmlns:xlink="http://www.w3.org/1999/xlink" x="0px" y="0px"
	 viewBox="0 0 229.7 32.8" style="enable-background:new 0 0 229.7 32.8;" xml:space="preserve">
<style type="text/css">
	.st0{fill-rule:evenodd;clip-rule:evenodd;fill:#BAB1AA;}
</style>
<g id="Crate_and_Barrel">
	<path class="st0" d="M120.7,31.9l-2.3-2.8c-1.8,1.8-5.9,3.7-8.9,3.7c-5.1,0-9.4-3.7-9.4-8.4c0-5.9,5.6-9.1,7.3-9.7
		c-1.1-1.4-3.1-3.8-3.1-6.8c0.1-3.9,2.5-7,7.7-7c4.5,0,7.9,3,7.9,7.3c0,4.9-3.8,6.6-4.9,7.6l3.7,5.2c1-1.3,2-4.4,1.8-4.9h4.9
		c0,0-0.7,6.2-3.5,9.1l5.2,6.8H120.7L120.7,31.9z M112.2,5.5c-1.5,0-2.8,1.3-2.7,2.5c0.1,1.7,1.5,2.8,2.4,3.9c1.1-0.8,3.1-2,3.1-3.8
		C115.1,6.8,113.9,5.5,112.2,5.5L112.2,5.5z M110.4,18.6c-4.8,3.2-4.5,5.5-4.5,5.5c0,2.3,2.1,3.5,3.7,3.7c1.8,0,4.5-1.5,5.8-2.7
		L110.4,18.6L110.4,18.6z"/>
	<path class="st0" d="M26.3,14.1c-1.1-4.5-5.2-8.2-10-8.2c-6,0-10.5,4.8-10.4,10.5c0.1,5.6,4.5,10,10.4,10c5.6,0,8.9-4.1,9.6-6.8
		h5.9c-1.3,8.3-9.3,12.7-15.6,12.7C9,32.4,0,26.4,0,16.5C0,7,7.2,0,16.3,0c7.7,0,14.8,5.9,15.8,14.1H26.3L26.3,14.1z"/>
	<path class="st0" d="M74.1,32.1c-4.6,0-5.5-3.4-5.5-5.2V13.2h-3V8.9h3V2.1h5.9v7h3.8v4.1h-3.8v12.2c0,3.1,3.8,2.1,4.4,2.3v4.4H74.1
		L74.1,32.1z"/>
	<path class="st0" d="M39,21.7c0,0.3,0,10.3,0,10.3h-5.8V9.6h5.6v2.3c0.8-1.1,2.5-2.4,4.4-3c1.3-0.1,2.5,0,2.5,0v5.5
		C42.8,13.5,38.7,14.8,39,21.7L39,21.7z"/>
	<path class="st0" d="M83.3,22.1c0,3,2.8,5.2,5.8,5.2c2.1,0,3.4-0.8,4.5-2.5h6c-0.8,3.9-4.9,7.6-10.3,7.6c-6.9,0-11.8-5.2-11.8-12.5
		c0-5.6,4.2-11.4,11.1-11.3c7.9,0.1,11.4,6.9,11.3,13.5H83.3L83.3,22.1z M88.5,13.2c-2.5-0.1-4.9,1.8-4.9,4.6h9.8
		C93.4,15.1,91.1,13.2,88.5,13.2L88.5,13.2z"/>
	<path class="st0" d="M60.6,31.9c0,0.1-0.1-0.8-0.4-1.8c-1,0.8-3.2,2.5-6.8,2.5c-3.9,0-8.4-2.4-8.4-7c0-2.8,1.8-6.5,8.2-7.3
		c3.7-0.6,6.5-0.3,6.6-2.3c0.1-0.7-0.6-3.1-4.2-3.1c-1.7,0-3.8,0.6-4.2,3.2h-5.1c0-3.9,2.4-7.3,9.8-7.3c4.6,0,9.3,2,9.3,7
		c0,0,0,12,0,12.4c0.1,1.3,0.6,3,1,3.7H60.6L60.6,31.9z M50.2,25.5c0.1,2.4,3.2,2.8,3.8,2.5c0,0,3.1,0,4.5-1.5
		c0.8-1.1,1.3-2.5,0.8-5.6C53.7,22.1,50.2,22.6,50.2,25.5L50.2,25.5z"/>
	<polygon class="st0" points="224.1,1.8 229.7,1.8 229.7,31.9 224.1,31.9 224.1,1.8 	"/>
	<path class="st0" d="M194.4,21.8c0,0.3,0,10.1,0,10.1h-5.8V9.7h5.6V12c1-1.1,2.5-2.5,4.4-3c1.4-0.3,2.7,0,2.7,0v5.5
		C198,13.6,194.1,14.9,194.4,21.8L194.4,21.8z"/>
	<path class="st0" d="M180.5,21.8c0,0.3,0,10.1,0,10.1h-5.9V9.7h5.8V12c1-1.1,2.5-2.5,4.4-3c1.3-0.3,2.5,0,2.5,0v5.5
		C184.3,13.6,180.2,14.9,180.5,21.8L180.5,21.8z"/>
	<path class="st0" d="M206.5,22.2c0,2.8,2.8,5.1,5.8,5.1c2,0,3.4-0.7,4.5-2.5h5.9c-0.7,3.9-4.8,7.6-10.1,7.6
		c-6.8,0-11.8-5.2-11.8-12.4c0-5.6,4.2-11.4,11.1-11.3c7.7,0,11.4,6.9,11.1,13.5H206.5L206.5,22.2z M211.8,13.2
		c-2.7,0-5.1,1.8-5.1,4.6h9.8C216.6,15.2,214.5,13.2,211.8,13.2L211.8,13.2z"/>
	<path class="st0" d="M143.2,31.9c-6.3,0-15.8,0-15.8,0V1.7h13.6c4.6,0,9.4,2.1,9.4,7.7c0,4.6-3.7,5.6-4.5,6.3
		c2.7,0.8,5.6,3.4,5.6,8.3C151.6,29.4,146.4,31.9,143.2,31.9L143.2,31.9z M139.8,6.5h-6.8v7.5h6.5c1.4,0,4.8-0.6,4.8-4.1
		C144.3,7.5,141.9,6.5,139.8,6.5L139.8,6.5z M139.8,18.4h-6.8v8.9h7.2c1,0,4.8-0.8,4.8-4.1C145,21.4,144.6,18.4,139.8,18.4
		L139.8,18.4z"/>
	<path class="st0" d="M168.1,31.9c0,0.1-0.3-0.8-0.4-1.8c-1,0.8-3.2,2.5-6.8,2.5c-3.9,0-8.4-2.4-8.4-7c0-2.8,1.8-6.3,8.3-7.3
		c3.4-0.6,6.3-0.3,6.5-2.3c0.1-0.6-0.6-3-4.2-3c-1.7,0-3.7,0.4-4.1,3.2h-5.2c0-3.9,2.7-7.3,9.8-7.3c4.5,0,9.1,2,9.3,7
		c0,4.2,0,11.5,0,11.5c0,1,0.4,3.5,0.8,4.4H168.1L168.1,31.9z M158.4,25.5c0,2.4,3.2,2.8,3.8,2.5c0,0,3.1,0,4.4-1.5
		c0.8-1.1,1.1-2.4,0.8-5.6C161.9,22.2,158.4,22.6,158.4,25.5L158.4,25.5z"/>
</g>
</svg>
