<svg xmlns="http://www.w3.org/2000/svg" viewBox="0 0 288 144">
    <path fill="none" d="M123.7 62.8c.6-.7 1-1.5 1.4-2.2.4-.8.6-1.5.6-2.2 0-.3-.1-.6-.2-.8-.1-.3-.4-.4-.7-.4-.5 0-1.1.4-1.6 1.1-.5.8-1 1.7-1.5 2.7-.5 1-.8 2-1.2 3-.3 1-.5 1.7-.6 2.2.6-.4 1.2-.8 1.9-1.4.7-.6 1.3-1.3 1.9-2zM140 83.6c-1.1 1.3-2.1 2.7-2.8 4.2-.8 1.5-1.1 3-1.1 4.5 0 .3 0 .7.1 1.1.1.4.2.8.3 1.1.2.3.4.6.6.8.3.2.6.3 1 .3s.8-.1 1.2-.3c.4-.2.8-.5 1.2-.8.4-.3.7-.7 1-1 .3-.4.6-.7.8-1 .7-.9 1.3-2 1.9-3.4.5-1.3 1-2.7 1.4-4.2.4-1.4.7-2.9 1-4.3.3-1.4.5-2.7.6-3.9-1.1.9-2.3 1.9-3.7 3.1-1.1 1.3-2.4 2.5-3.5 3.8zM85.1 61.2c-.2-.5-.5-.9-.8-1.2-.4-.3-.8-.5-1.4-.5-1 0-1.9.4-2.6 1.2-.8.8-1.4 1.8-1.9 2.9-.5 1.1-.9 2.3-1.2 3.5-.3 1.2-.4 2.2-.4 3 0 .4 0 .9.1 1.4.1.5.2 1 .4 1.4.2.4.5.8.8 1.1.4.3.8.4 1.3.4s.9-.1 1.3-.3c.4-.2.8-.4 1.1-.7.7-.5 1.2-1.2 1.7-1.9s.9-1.5 1.2-2.3c.3-.8.5-1.6.7-2.5.1-.9.2-1.7.2-2.5 0-.4 0-.9-.1-1.5-.1-.5-.2-1-.4-1.5zM38.9 69.7c-.9 1-1.6 2.1-2.1 3.3-.6 1.1-.8 2.2-.8 3.2 0 .3.1.5.3.7.2.2.5.3.8.3.4 0 .7-.1 1-.3.3-.2.6-.4.8-.6.4-.4.9-1.1 1.5-2.1s1.2-2.2 1.8-3.4c.6-1.2 1.1-2.4 1.6-3.5.4-1.1.7-2 .8-2.5-.8.5-1.8 1.1-2.8 2-1.1.9-2.1 1.8-2.9 2.9zM165 69.9c-.4-1-1-2-1.7-2.8-.7-.8-1.5-1.5-2.6-2.1-.4 2.5-.7 4.9-1 7.4-.3 2.5-.4 5-.4 7.5 0 .4 0 1 .1 1.9 0 .9.1 1.8.3 2.7.2.9.4 1.7.7 2.4.3.7.7 1 1.2 1 .6 0 1.2-.3 1.7-.8.5-.6.9-1.2 1.3-2s.6-1.6.9-2.4c.2-.8.4-1.4.4-1.9l.3-2.1c.1-.7.1-1.4.1-2.1v-.2c0-1.1-.1-2.2-.3-3.3-.3-1.1-.6-2.2-1-3.2zM246.4 50.3c.7-2.1 1.3-4.1 1.7-6.2s.7-3.9.7-5.5v-.3c0-.2 0-.4-.1-.5 0-.2-.1-.3-.2-.4-.1-.1-.2-.2-.3-.2-.2 0-.3.1-.5.2l-.4.4c-.5.5-.9 1.4-1.4 2.5-.5 1.1-.9 2.5-1.3 3.9-.4 1.5-.8 3.1-1.1 4.7-.4 1.7-.7 3.3-.9 4.8-.3 1.6-.5 3-.6 4.3-.1 1.3-.2 2.3-.2 3.1v.5c.7-1.5 1.5-3.2 2.3-5.2.9-1.9 1.6-4 2.3-6.1zM237.9 61c-1.2 0-2.4.4-3.5 1.1-1.1.8-2.1 1.7-3 2.8-.9 1.1-1.6 2.3-2.1 3.6-.5 1.3-.8 2.5-.8 3.6 0 .2 0 .4.1.7 0 .3.2.4.5.4.6 0 1.3-.3 2.2-1 .9-.6 1.8-1.4 2.8-2.2.9-.8 1.8-1.7 2.5-2.5.8-.8 1.3-1.5 1.5-2-.1-.8-.1-1.5-.1-2.3-.1-.6-.1-1.4-.1-2.2z"/>
    <path fill="#BAB1AA" d="M74.8 59.2c.3-.3.4-.6.4-1 0-.6-.2-1-.5-1.2-.4-.2-.8-.3-1.3-.4-.5-.1-1.1-.2-1.6-.2h-4.2c-.8 0-1.7 0-2.6.1.5-1.4 1.1-2.9 1.7-4.5.6-1.6 1.3-3.1 2.1-4.6.7-1.5 1.5-3 2.4-4.4.8-1.4 1.7-2.8 2.6-4.1.2-.3.4-.6.7-.8.3-.3.6-.6.8-.9.3-.3.5-.6.7-1 .2-.3.3-.7.3-1 0-.4-.2-.6-.7-.6-.4 0-.7.2-1.1.5-.4.3-.8.7-1.2 1.1-.4.4-.7.9-1.1 1.3-.3.4-.6.8-.8 1.1-2 2.9-3.8 5.8-5.4 8.9-1.6 3.1-3 6.2-4.3 9.5-2 .2-4.1.6-6 1.1-2 .5-4 1.1-5.9 1.8.6-2.3 1.1-4.7 1.5-7.1.4-2.4.6-4.8.6-7.2 0-.9-.1-1.9-.2-2.9-.2-1-.4-2-.9-2.8-.4-.8-1-1.6-1.7-2.1-.7-.6-1.7-.8-2.9-.8-.2 0-.7.1-1.2.2-.6.1-1.2.3-1.7.4-.6.2-1.1.4-1.6.7-.5.2-.7.5-.7.8 0 .2.1.5.4.7.3.2.5.3.7.3.3 0 .6-.1.9-.2.3-.1.6-.2.9-.2.7 0 1.3.3 1.7.8.4.5.8 1.1 1 1.8.2.7.4 1.4.5 2.2.1.8.1 1.4.1 1.9 0 .2 0 .8-.1 1.6s-.2 1.8-.3 3c-.1 1.1-.3 2.3-.5 3.5-.2 1.2-.4 2.4-.5 3.4-.2 1.1-.3 1.9-.4 2.6-.1.7-.2 1.1-.3 1.1-.6.5-1.2.9-1.9 1.3s-1.3.8-1.9 1.3c-.9.7-1.8 1.5-2.7 2.4-1 .9-1.8 1.9-2.6 2.9s-1.4 2.1-1.9 3.3c-.5 1.1-.7 2.3-.7 3.5 0 1.4.4 2.6 1.1 3.5.8.9 1.9 1.3 3.4 1.3 1.1 0 2.1-.3 3-1 .9-.7 1.8-1.5 2.5-2.6.8-1.1 1.5-2.2 2.1-3.6.6-1.3 1.2-2.7 1.7-4 .5-1.3.9-2.6 1.3-3.8.4-1.2.7-2.2.9-3 1.9-.8 3.8-1.6 5.8-2.2 2-.6 3.9-1.1 6-1.5-.6 1.7-1.1 3.4-1.4 5.3-.4 1.8-.5 3.6-.5 5.4 0 .8.1 1.7.2 2.6.1 1 .4 1.8.8 2.5.2.3.4.6.8 1 .4.3.7.5 1.1.5.2 0 .5-.1.8-.3.3-.2.4-.4.4-.7 0-.1-.1-.3-.2-.5s-.3-.6-.4-.9c-.2-.4-.3-.8-.4-1.2-.1-.5-.2-1-.2-1.5 0-1 .1-2 .2-3.1s.3-2.2.5-3.3c.2-1.1.5-2.2.8-3.3.3-1.1.7-2 1.1-2.9.7-.1 1.3-.1 2-.2s1.3-.1 2-.1c1 0 1.9.2 2.8.6.9.4 1.8.6 2.7.6-.1-.3.2-.5.5-.7zm-31.2 8.1c-.4 1.1-1 2.3-1.6 3.5-.6 1.2-1.2 2.3-1.8 3.4-.6 1-1.1 1.8-1.5 2.1-.2.2-.5.5-.8.6-.3.2-.6.3-1 .3-.3 0-.5-.1-.8-.3-.2-.2-.3-.5-.3-.7 0-1 .3-2.1.8-3.2.6-1.1 1.3-2.2 2.1-3.3.9-1 1.8-2 2.8-2.9 1-.9 1.9-1.5 2.8-2 0 .6-.2 1.4-.7 2.5zM86.8 58.4c-.4-.7-.9-1.3-1.5-1.7-.6-.5-1.4-.7-2.4-.7-1.6 0-3 .5-4.2 1.5-1.2 1-2.2 2.2-3.1 3.6-.8 1.4-1.5 2.9-1.9 4.6-.5 1.5-.7 3-.7 4.3 0 .8.1 1.6.3 2.4.2.8.5 1.6.8 2.3.4.7.9 1.2 1.6 1.7.7.4 1.5.7 2.4.7.7 0 1.5-.1 2.2-.4.7-.3 1.4-.6 2-1 1-.7 1.9-1.5 2.6-2.4.7-1 1.3-2 1.7-3.1.5-1.1.8-2.2 1-3.4.2-1.2.3-2.4.3-3.5 0-.8-.1-1.6-.2-2.5-.3-.9-.5-1.7-.9-2.4zm-1.4 8.4c-.1.9-.4 1.7-.7 2.5-.3.8-.7 1.6-1.2 2.3-.5.7-1.1 1.3-1.7 1.9-.4.3-.7.5-1.1.7-.4.2-.8.3-1.3.3s-1-.2-1.3-.4c-.4-.3-.6-.7-.8-1.1-.2-.4-.3-.9-.4-1.4-.1-.5-.1-1-.1-1.4 0-.8.1-1.8.4-3 .3-1.2.7-2.4 1.2-3.5s1.1-2.1 1.9-2.9c.8-.8 1.6-1.2 2.6-1.2.6 0 1 .2 1.4.5.4.3.6.7.8 1.2.2.5.4 1 .4 1.6.1.6.1 1.1.1 1.5 0 .7-.1 1.5-.2 2.4zM151.3 59.3c-.1-.6-.3-.9-.5-1.1-.4-.2-.7-.4-1.1-.4-.4 0-.8.2-1.1.5-.3.4-.6.7-.8 1-1.3 1.6-2.5 3.3-3.7 4.9-1.2 1.6-2.5 3.2-4 4.7l-.7.7c-.3.3-.7.6-1.1 1-.4.3-.7.6-1.1.8-.4.2-.6.4-.8.4-.3 0-.4-.1-.5-.4 0-.3-.1-.5-.1-.7 0-.5.1-1.1.2-1.9.2-.7.4-1.5.6-2.3.2-.8.5-1.6.7-2.3.3-.7.5-1.3.7-1.8.2-.4.4-.9.7-1.6s.4-1.2.4-1.6c0-.6-.2-1.1-.7-1.5-.5-.4-1-.6-1.6-.6-.5 0-.9.1-1.2.4-.3.3-.6.6-.8 1.1-.2.3-.3.6-.4 1-.1.3-.2.7-.3 1-.5 1.5-.9 3.1-1.3 4.7-.2.9-.3 1.8-.4 2.6-.4.6-.8 1.2-1.3 1.8-.7.9-1.5 1.7-2.3 2.4-.8.7-1.8 1.3-2.7 1.7-1 .4-2 .7-3.2.7-1.2 0-2.1-.3-2.6-1s-.8-1.6-.8-2.8c0-.7.1-1.4.3-2.2.8-.3 1.7-.8 2.6-1.6 1-.8 1.8-1.7 2.7-2.7.8-1 1.5-2 2.1-3.1s.8-2.1.8-2.9c0-.9-.3-1.7-.8-2.3-.5-.6-1.2-.9-2.2-.9-1.4 0-2.7.5-3.9 1.6-1.2 1.1-2.2 2.4-3 4-.8 1.6-1.5 3.2-2 4.9-.2.9-.4 1.7-.5 2.4-.1.1-.1.2-.2.3-.5.8-1.1 1.6-1.8 2.4-.7.8-1.4 1.4-2.1 2-.7.5-1.4.8-2.1.8-.4 0-.7-.1-1-.3-.2-.2-.4-.5-.5-.8-.1-.3-.2-.7-.2-1v-1c0-1.2 0-2.5.1-3.7.1-1.2.1-2.5.1-3.7 0-.4 0-.9-.1-1.4 0-.6-.1-1.1-.3-1.7-.2-.6-.4-1-.7-1.4-.3-.4-.7-.6-1.3-.6-.7 0-1.5.4-2.4 1.2-.9.8-1.8 1.7-2.7 2.7-.9 1-1.7 2.1-2.5 3.1-.8 1.1-1.3 1.9-1.7 2.4.1-1 .3-2 .5-3.1.2-1 .5-2 .9-3 .3-.8.6-1.8.9-2.8.3-1 .4-2 .4-2.9 0-.6-.1-1-.3-1.3-.2-.3-.6-.5-1.2-.5-.7 0-1.3.3-1.9.8-.6.5-1 1.1-1.1 1.7-.2.8-.3 1.6-.5 2.5-.1.8-.3 1.7-.5 2.5-.5 2.5-1.1 5.2-1.6 7.9-.5 2.8-.8 5.4-.8 8 0 .4.1.7.3.9.2.3.5.4.8.4.5 0 .9-.2 1.3-.5.4-.4.7-.7.9-1.2.6-1.3 1.2-2.7 1.9-3.9.6-1.3 1.3-2.5 2.1-3.8.6-1 1.3-2.1 2.1-3.2s1.6-2.1 2.5-3c.1-.1.3-.3.6-.5.2-.2.5-.3.6-.3.2 0 .3.1.4.4.1.3.1.5.1.6 0 1 0 2-.1 3s-.1 2-.1 3c0 .7 0 1.4.1 2.2.1.8.2 1.6.5 2.3.3.7.7 1.3 1.2 1.8s1.2.7 2.1.7c1 0 2-.3 3-1 1-.6 2-1.4 3-2.3.4-.4.8-.8 1.2-1.3.1.4.1.8.2 1.2.2.9.6 1.6 1 2.3.5.7 1.1 1.2 1.8 1.6.7.4 1.6.6 2.7.6 1.4 0 2.8-.2 4.2-.7 1.3-.5 2.6-1.1 3.8-2 1.2-.8 2.2-1.8 3.2-2.9v.3c.1.5.2 1 .4 1.4.2.4.5.7.9 1 .4.3.9.4 1.5.4.9 0 1.9-.4 3.1-1.3 1.2-.9 2.4-1.9 3.6-3.1 1.2-1.2 2.3-2.4 3.3-3.6 1-1.2 1.7-2.2 2.1-2.9.1 2.8.2 5.5.2 8.2v1.5c0 .5 0 1-.1 1.5-1.4.9-2.9 2-4.5 3.3-1.6 1.3-3.1 2.7-4.5 4.3-1.4 1.5-2.6 3.2-3.5 4.9-.9 1.7-1.4 3.5-1.4 5.2 0 .7.1 1.4.2 2.1.2.7.4 1.3.8 1.8s.8 1 1.4 1.3c.6.3 1.3.5 2.1.5s1.7-.2 2.4-.5c.8-.3 1.5-.7 2.2-1.2.7-.5 1.3-1.1 1.9-1.7.6-.7 1.1-1.3 1.5-2 1.3-2 2.3-4.2 3-6.5.7-2.3 1.3-4.7 1.6-7.2.4-2.5.6-4.9.7-7.4.1-2.5.1-4.9.1-7.2v-1.3c0-.6 0-1.2-.1-1.9.2-.8.1-1.4 0-2zM120.5 64c.3-1 .7-2 1.2-3s1-1.9 1.5-2.7c.5-.8 1.1-1.1 1.6-1.1.4 0 .6.1.7.4.1.3.2.5.2.8 0 .7-.2 1.4-.6 2.2-.4.8-.9 1.5-1.4 2.2-.6.7-1.2 1.4-1.9 2-.7.6-1.3 1.1-1.9 1.4.1-.5.3-1.2.6-2.2zm26.2 16.7c-.3 1.4-.6 2.9-1 4.3s-.9 2.8-1.4 4.2c-.5 1.3-1.2 2.4-1.9 3.4-.2.3-.5.7-.8 1-.3.4-.7.7-1 1-.4.3-.8.6-1.2.8-.4.2-.8.3-1.2.3-.4 0-.8-.1-1-.3-.3-.2-.5-.5-.6-.8-.2-.3-.3-.7-.3-1.1-.1-.4-.1-.8-.1-1.1 0-1.6.4-3.1 1.1-4.5.8-1.5 1.7-2.9 2.8-4.2 1.1-1.3 2.3-2.5 3.6-3.7 1.3-1.1 2.5-2.2 3.7-3.1-.2 1.1-.4 2.4-.7 3.8zM171.6 61.2c-.2-.1-.4-.1-.6-.1-.3 0-.6 0-.8.1-.3.1-.5.1-.8.2-.4.1-.8.1-1.3.2-.4 0-.9.1-1.3.1h-1.2c-.5 0-1 0-1.5-.1-.5 0-1-.1-1.4-.2-.5-.1-.8-.2-1.1-.3.6-3.7 1.5-7.3 2.6-10.9 1.1-3.5 2.4-7 3.9-10.4.5-1 .9-2 1.5-3l1.5-3c.1-.3.3-.6.3-.9.1-.3.1-.6.1-1s-.1-.8-.3-1.1c-.2-.3-.5-.5-1-.5-.3 0-.7.1-1.1.2-.4.1-.8.2-1.2.4-.4.2-.7.4-1.1.6-.3.2-.6.4-.8.7-.3.3-.5.7-.7 1.1-.2.4-.4.8-.5 1.2-2.6 6.9-4.6 13.8-6 20.8-1.3 7-2 14.2-2 21.6v2c0 .9.1 1.8.2 2.8.1 1 .2 2 .4 3s.4 1.9.8 2.8c.3.8.8 1.5 1.3 2s1.1.8 1.9.8c1.7 0 3.1-.5 4.2-1.6s2-2.4 2.7-3.9c.7-1.5 1.1-3.2 1.4-4.9.3-1.7.4-3.2.4-4.5 0-.8-.1-1.8-.2-2.8-.1-1-.3-2-.5-3.1-.2-1-.6-2-1-2.9-.4-.9-1-1.7-1.6-2.3h1.6c.6 0 1.2 0 1.7-.1s1-.3 1.3-.6c.4-.3.6-.8.6-1.5-.1-.7-.2-.8-.4-.9zm-5.4 15.3c0 .7 0 1.4-.1 2.1l-.3 2.1c-.1.5-.2 1.1-.4 1.9-.2.8-.5 1.6-.9 2.4-.4.8-.8 1.4-1.3 2-.5.6-1.1.8-1.7.8-.5 0-.9-.3-1.2-1-.3-.7-.5-1.5-.7-2.4-.2-.9-.3-1.8-.3-2.7 0-.9-.1-1.5-.1-1.9 0-2.5.1-5 .4-7.5.3-2.5.6-4.9 1-7.4 1 .5 1.9 1.2 2.6 2.1.7.8 1.2 1.8 1.7 2.8.4 1 .7 2.1.9 3.2.2 1.1.3 2.2.3 3.3v.2zM254.9 65.6c-.1-.2-.3-.4-.6-.4-.4 0-.7.2-1 .6-.3.4-.5.8-.7 1.1-.4.6-.8 1.3-1.5 2.2-.6.8-1.3 1.6-2 2.4-.7.8-1.5 1.4-2.3 1.9-.8.5-1.6.8-2.4.8-.5 0-1-.4-1.3-1.1-.3-.7-.5-1.5-.7-2.5-.1-.9-.2-1.9-.3-2.8 0-.9-.1-1.5-.1-1.9.8-1.7 1.8-3.6 2.8-5.9 1-2.3 2-4.7 2.9-7.1.9-2.5 1.6-4.9 2.2-7.3.6-2.4.9-4.5.9-6.3 0-.5 0-1-.1-1.7s-.2-1.3-.4-1.9c-.2-.6-.5-1.1-.9-1.5-.4-.4-.9-.6-1.5-.6-.5 0-1.1.2-1.6.5-.5.4-1 .7-1.3 1.1-.7.7-1.4 1.6-2.1 2.8-.6 1.2-1.2 2.4-1.8 3.8-.5 1.4-1 2.9-1.4 4.4-.4 1.6-.8 3.1-1.1 4.6-.3 1.5-.5 2.9-.7 4.3-.1 1.4-.2 2.6-.2 3.5-.7-.8-1.6-1.2-2.7-1.2-.8 0-1.7.2-2.6.7-.9.4-1.6.9-2.2 1.4-1.6 1.3-2.8 3-3.7 5-.3.6-.5 1.3-.7 2-.2.4-.5.9-.8 1.4-.5.8-1.1 1.6-1.8 2.4-.7.8-1.4 1.4-2.1 2-.7.5-1.4.8-2.1.8-.4 0-.7-.1-1-.3-.2-.2-.4-.5-.5-.8-.1-.3-.2-.7-.2-1v-1c0-1.2 0-2.5.1-3.7.1-1.2.1-2.5.1-3.7 0-.4 0-.9-.1-1.4 0-.6-.1-1.1-.3-1.7-.2-.6-.4-1-.7-1.4-.3-.4-.7-.6-1.3-.6-.7 0-1.5.4-2.4 1.2-.9.8-1.8 1.7-2.7 2.7-.9 1-1.7 2.1-2.5 3.1-.8 1.1-1.3 1.9-1.7 2.4.1-1 .3-2 .5-3.1.2-1 .5-2 .9-3 .3-.8.6-1.8.9-2.8.3-1 .4-2 .4-2.9 0-.6-.1-1-.3-1.3-.2-.3-.6-.5-1.2-.5-.7 0-1.3.3-1.9.8-.6.5-1 1.1-1.1 1.7-.2.8-.3 1.6-.5 2.5-.1.8-.3 1.7-.5 2.5-.4 1.9-.8 4-1.2 6-.3.5-.7 1.1-1.4 2-.7 1-1.4 1.9-2.2 2.9-.8 1-1.6 1.8-2.4 2.5-.8.7-1.5 1.1-2 1.1-.4 0-.6-.2-.8-.4-.2-.3-.4-.7-.5-1.1-.1-.4-.2-.8-.2-1.2 0-.4-.1-.8-.1-1 0-.8.1-1.7.2-2.8.1-1 .3-2 .4-3.1.2-1 .4-2 .7-3 .3-1 .5-1.9.8-2.6.1-.3.2-.6.3-1 .1-.3.2-.7.2-1 0-.4-.1-.6-.3-.7-.2-.1-.5-.2-.8-.2-.5 0-.8.1-1.1.3-.3.2-.6.5-.8.8-.2.3-.4.7-.5 1.1-.1.4-.3.8-.4 1.1-.2.5-.6 1.2-1.1 2.1-.5.9-1.1 1.8-1.7 2.9-.6 1-1.3 2.1-2.1 3.1-.7 1.1-1.5 2-2.2 2.9-.8.9-1.5 1.6-2.2 2.1-.7.5-1.4.8-2 .8-.5 0-.8-.3-.9-.8-.1-.5-.1-1-.1-1.3 0-.9.1-1.9.2-3l.6-3.3c.2-1.1.5-2.2.8-3.3.3-1.1.6-2 .9-2.9.1-.3.1-.6.2-.9.1-.3.1-.6.1-.9 0-.8-.4-1.2-1.2-1.2-.8 0-1.5.2-2.2.7-.7.5-1.1 1.1-1.4 1.9-.5 1.5-.9 3.1-1.1 4.8-.2 1.7-.3 3.3-.3 4.9 0 .7 0 1.4.1 2.3.1.9.2 1.7.4 2.4.2.8.6 1.4 1.1 1.9.5.5 1.2.8 2.2.8 1 0 2-.3 3-.9 1-.6 2-1.4 2.9-2.2.9-.9 1.8-1.8 2.5-2.8.8-1 1.4-1.9 1.9-2.6-.1.4-.1.7-.1 1v1c0 .6 0 1.3.1 2.1.1.9.2 1.7.4 2.5s.6 1.4 1.1 2c.5.6 1.1.8 1.9.8 1 0 2.1-.4 3.2-1.2 1.1-.8 2.2-1.7 3.3-2.8.7-.7 1.3-1.4 1.8-2.1-.2 1.7-.4 3.5-.4 5.1 0 .4.1.7.3.9.2.3.5.4.8.4.5 0 .9-.2 1.3-.5.4-.4.7-.7.9-1.2.6-1.3 1.2-2.7 1.9-3.9.6-1.3 1.3-2.5 2.1-3.8.6-1 1.3-2.1 2.1-3.2s1.6-2.1 2.5-3c.1-.1.3-.3.6-.5.2-.2.5-.3.6-.3.2 0 .3.1.4.4.1.3.1.5.1.6 0 1 0 2-.1 3s-.1 2-.1 3c0 .7 0 1.4.1 2.2.1.8.2 1.6.5 2.3.3.7.7 1.3 1.2 1.8s1.2.7 2.1.7c1 0 2-.3 3-1 1-.6 2-1.4 3-2.3.5-.5.9-.9 1.3-1.4 0 .4.1.8.2 1.3.1.6.3 1.1.6 1.6.2.5.6.9 1 1.3s.9.5 1.5.5c.8 0 1.6-.2 2.5-.7.9-.5 1.8-1.1 2.7-1.8.9-.7 1.7-1.4 2.5-2.2.8-.8 1.4-1.4 1.9-2 .1.7.3 1.5.5 2.4.2.9.6 1.8 1 2.6s.9 1.5 1.6 2.1c.6.6 1.4.9 2.3.9 1.1 0 2.2-.3 3.2-.8 1-.6 1.9-1.3 2.8-2.1.9-.8 1.7-1.7 2.4-2.7.7-1 1.4-1.9 1.9-2.8.2-.3.4-.7.7-1.1.2-.4.3-.8.3-1.2.2.2.2-.1.1-.3zm-18.4 1.9c-.8.8-1.6 1.7-2.5 2.5-.9.8-1.8 1.6-2.8 2.2-.9.6-1.7 1-2.2 1-.3 0-.4-.1-.5-.4 0-.3-.1-.5-.1-.7 0-1.1.3-2.3.8-3.6.5-1.3 1.2-2.5 2.1-3.6.9-1.1 1.9-2 3-2.8 1.1-.8 2.3-1.1 3.5-1.1v2.3c0 .7 0 1.5.1 2.3-.2.4-.7 1.1-1.4 1.9zm5.4-6.4c0-.8.1-1.8.2-3.1s.3-2.7.6-4.3l.9-4.8c.4-1.7.7-3.2 1.1-4.7.4-1.5.8-2.8 1.3-3.9s.9-2 1.4-2.5l.4-.4c.1-.1.3-.2.5-.2.1 0 .2.1.3.2.1.1.1.3.2.4 0 .2.1.4.1.5v.3c0 1.6-.2 3.5-.7 5.5s-1 4.1-1.7 6.2c-.7 2.1-1.4 4.1-2.2 6.1-.8 2-1.6 3.7-2.3 5.2v-.5z"/>
    <path fill="#BAB1AA" d="M33 90.1h95.2v2.2H33zM171.9 90.1h83.2v2.2h-83.2z"/>
    <g fill="#BAB1AA">
        <path d="M58.2 109.3v4.4h-1.3v-9.5h1.3v4.1h2.4v-4.1H62v9.5h-1.3v-4.4h-2.5zM65.5 109.3v3.4h2.4v1h-3.7v-9.5h3.7v1h-2.4v3h1.7v1h-1.7zM69.5 104.3h1.4v8.4h2.4v1h-3.7v-9.4zM77 109.3h-1v4.4h-1.4v-9.5H77c1.7 0 2.4 1 2.4 2.7-.1 1.6-.9 2.4-2.4 2.4zm-.7-4H76v3h.3c1.1 0 1.7-.2 1.7-1.3 0-1.4-.4-1.7-1.7-1.7zM86.2 113.8c-2.1 0-2.7-1.4-2.7-3.5v-6.1h1.4v6.1c0 1.2.1 2.4 1.3 2.4s1.3-1.1 1.3-2.4v-6.1h1.3v6.1c.1 2.1-.5 3.5-2.6 3.5zM93.1 105.3c-.7 0-1 .4-1 1s.3 1 .7 1.3l1.7 1.3c.7.6 1.3 1.4 1.3 2.6 0 1.4-.9 2.2-2.4 2.2-1.8 0-2.6-1.1-2.7-2.8l1.3-.3c0 1 .3 2 1.3 2 .7 0 1-.3 1-1 0-.8-.5-1.3-1-1.7l-1.7-1.3c-.6-.5-1-1.2-1-2.2 0-1.4.9-2.3 2.4-2.3 1.7 0 2.6.9 2.7 2.5l-1.3.3c0-.8-.3-1.6-1.3-1.6zM102.4 105.3c-.7 0-1 .4-1 1s.3 1 .7 1.3l1.7 1.3c.7.6 1.3 1.4 1.3 2.6 0 1.4-.9 2.2-2.4 2.2-1.8 0-2.6-1.1-2.7-2.8l1.3-.3c0 1 .3 2 1.3 2 .7 0 1-.3 1-1 0-.8-.5-1.3-1-1.7l-1.7-1.3c-.6-.5-1-1.2-1-2.2 0-1.4.9-2.3 2.4-2.3 1.7 0 2.6.9 2.7 2.5l-1.3.3c0-.8-.4-1.6-1.3-1.6zM107.6 113.7h-1.4l2-9.5h1.3l2 9.5h-1.3l-.5-2.4H108l-.4 2.4zm1.3-7.4l-.7 4.1h1.3l-.6-4.1zM115.9 104.3h1.3l-2 9.5h-1.4l-2-9.5h1.3l1 5.1.3 2.4.4-2.4 1.1-5.1zM120.2 109.3v3.4h2.4v1h-3.7v-9.5h3.7v1h-2.4v3h1.7v1h-1.7zM128.2 105.3v3h1.7v1h-1.7v4.4h-1.3v-9.5h3.7v1h-2.4zM137 107.2v3.4c0 1.9-.7 3.1-2.6 3.1-1.9 0-2.6-1.2-2.6-3.1v-3.4c0-1.9.7-3.1 2.6-3.1 1.9.1 2.6 1.2 2.6 3.1zm-3.8-.3v4.1c0 1 .2 1.7 1.3 1.7s1.3-.7 1.3-1.7v-4.1c0-1-.2-1.6-1.3-1.6s-1.3.6-1.3 1.6zM142.6 109l1.5 4.7h-1.3l-1.4-4.4h-1v4.4H139v-9.5h1.7c1.9 0 3 .7 3 2.5 0 1.2-.4 2-1.1 2.3zm-1.9-3.7h-.3v3h.3c1.1 0 1.7-.4 1.7-1.5s-.6-1.5-1.7-1.5zM153.4 107.2v3.4c0 1.9-.7 3.1-2.6 3.1-1.9 0-2.6-1.2-2.6-3.1v-3.4c0-1.9.7-3.1 2.6-3.1 1.9.1 2.6 1.2 2.6 3.1zm-3.9-.3v4.1c0 1 .2 1.7 1.3 1.7 1 0 1.3-.7 1.3-1.7v-4.1c0-1-.2-1.6-1.3-1.6s-1.3.6-1.3 1.6zM158 113.8c-2.1 0-2.7-1.4-2.7-3.5v-6.1h1.4v6.1c0 1.2.1 2.4 1.3 2.4s1.4-1.1 1.4-2.4v-6.1h1.4v6.1c-.1 2.1-.7 3.5-2.8 3.5zM166.3 109l1.5 4.7h-1.3l-1.4-4.4h-1v4.4h-1.4v-9.5h1.7c1.9 0 3 .7 3 2.5.1 1.2-.3 2-1.1 2.3zm-1.9-3.7h-.3v3h.3c1.1 0 1.7-.4 1.7-1.5s-.6-1.5-1.7-1.5zM173.4 105.3v3h1.7v1h-1.7v4.4h-1.3v-9.5h3.7v1h-2.4zM178.6 104.3v9.5h-1.4v-9.5h1.4zM184.4 109l1.5 4.7h-1.3l-1.4-4.4h-1v4.4h-1.4v-9.5h1.7c1.9 0 3 .7 3 2.5.1 1.2-.3 2-1.1 2.3zm-1.8-3.7h-.3v3h.3c1.1 0 1.7-.4 1.7-1.5s-.6-1.5-1.7-1.5zM189.7 105.3c-.7 0-1 .4-1 1s.3 1 .7 1.3l1.7 1.3c.7.6 1.4 1.4 1.4 2.6 0 1.4-.9 2.2-2.4 2.2-1.8 0-2.6-1.1-2.7-2.8l1.3-.3c0 1 .3 2 1.4 2 .7 0 1-.3 1-1 0-.8-.5-1.3-1-1.7l-1.7-1.3c-.6-.5-1-1.2-1-2.2 0-1.4.9-2.3 2.4-2.3 1.7 0 2.6.9 2.7 2.5l-1.5.4c-.1-.9-.4-1.7-1.3-1.7zM198.2 105.5h-1.7v8.2h-1.3v-8.2h-1.7v-1.2h4.7v1.2zM203.6 109.3v4.4h-1.3v-9.5h1.3v4.1h2.4v-4.1h1.4v9.5H206v-4.4h-2.4zM214.6 107.2v3.4c0 1.9-.7 3.1-2.6 3.1-1.9 0-2.6-1.2-2.6-3.1v-3.4c0-1.9.7-3.1 2.6-3.1 1.9.1 2.6 1.2 2.6 3.1zm-3.9-.3v4.1c0 1 .2 1.7 1.3 1.7 1 0 1.3-.7 1.3-1.7v-4.1c0-1-.2-1.6-1.3-1.6s-1.3.6-1.3 1.6zM217.9 106.3v7.5h-1.4v-9.5h1.9l1.3 7.2 1.3-7.2h1.9v9.5h-1.4v-7.5l-1.4 7.5h-1l-1.2-7.5zM226.5 109.3v3.4h2.4v1h-3.7v-9.5h3.7v1h-2.4v3h1.7v1h-1.7zM231.5 104.3l-.2 7.4h-.8l-.3-7.4h1.3zm0 8.1v1.4h-1.3v-1.4h1.3z"/>
    </g>
</svg>
