<svg xmlns="http://www.w3.org/2000/svg" xmlns:xlink="http://www.w3.org/1999/xlink"><symbol id="bbb" viewBox="0 0 194.5 60.7"><style>.ast0{fill-rule:evenodd;clip-rule:evenodd;fill:#bab1aa}</style><g id="aBed_Bath__x26__Beyond"><path class="ast0" d="M.1 37.7h10.5c4.8 0 9.7 1 9.7 6.3 0 2-1.1 3.9-3.3 4.6v.2c2.7.9 4.4 2.7 4.4 5.4 0 4.7-4.8 6.2-9.1 6.2H.1V37.7zm9.2 8.7c1.3 0 2.8-.1 2.8-1.7 0-1.7-1.7-1.6-3-1.6h-.7v3.2h.9v.1zm-.9 8.5h1c1.5 0 3.6 0 3.6-1.9s-2.3-1.9-3.8-1.9h-.8v3.8zM22.9 37.7h18.3v6.2h-8.3V46h7.6v5.9h-7.6v2.2h8.6v6.2H22.9V37.7zM54 37.7l3.4 5.9h.3c.3-.7.6-1.4 1-2.1l2.2-3.8h12.5L63 50.5v9.8H52.1v-9.8L41.4 37.7H54z"/><path class="ast0" d="M104.8 49c0 7.3-8.1 11.6-18.1 11.6-10 0-18.1-4.3-18.1-11.6 0-7.1 8.2-11.7 18.1-11.7 9.9 0 18.1 4.6 18.1 11.7zm-24.3.2c0 2.6 2.5 4.3 6.1 4.3 3.6 0 6.1-1.8 6.1-4.3 0-2.4-2.3-4.4-6.1-4.4-3.7 0-6.1 2-6.1 4.4zM143.5 37.7h18.8c17.1 0 30.2 3.3 30.2 11.6 0 6.7-10.7 11-25.6 11h-23.4V37.7zM162 53.5h1.1c6.1 0 10.9-1.3 10.9-4.2 0-3.2-4.1-4.5-10.9-4.5H162v8.7zM188.5 37.9c0-1.7 1.3-3 3-3s3 1.3 3 3-1.3 3-3 3-3-1.3-3-3zm5.5 0c0-1.4-1.2-2.5-2.6-2.5-1.4 0-2.6 1.1-2.6 2.5s1.2 2.5 2.6 2.5c1.5.1 2.6-1.1 2.6-2.5zm-1.1 1.7h-.6l-1-1.5h-.6v1.5h-.5v-3.3h1.4c.6 0 1.2.2 1.2.9 0 .6-.5.9-1 .9l1.1 1.5zm-1.5-2c.4 0 1.1.1 1.1-.4 0-.3-.4-.4-.8-.4h-.9v.8h.6zM118.5 37.7h-12.2v22.6h12.2V48.8l10.7 11.5h12.2V37.7h-12.2v11.7l-10.7-11.7zM0 1.3h3.7c5.6 0 11 1.5 11 8.2 0 2.2-1.2 4.7-3.2 5.7v.1c3.5.6 6 4.1 6 7.6 0 6-5.1 8.4-10.4 8.4H0v-30zm3.7 13.2h1c3.5 0 6.4-.7 6.4-5 0-4.2-2.9-4.9-6.4-4.9h-1v9.9zm0 13.4h2.9c3.5 0 7.1-1 7.1-5.3 0-4.2-4.3-5.1-7.6-5.1H3.7v10.4zM19.6 1.3h16.1v3.4H23.3v8.4h12v3.4h-12v11.3h12.4v3.4H19.6V1.3zM39.2 1.3h6.2c9.2 0 16.8 4.8 16.8 14.8 0 10.2-7.5 15.1-16.9 15.1h-6.1V1.3zm3.7 26.5h1.3c7.6 0 14.2-2.9 14.2-11.6S51.8 4.6 44.2 4.6h-1.3v23.2zM72.7 1.3h3.7c5.6 0 11 1.5 11 8.2 0 2.2-1.2 4.7-3.2 5.7v.1c3.5.6 6 4.1 6 7.6 0 6-5.1 8.4-10.4 8.4h-7v-30h-.1zm3.7 13.2h1c3.5 0 6.4-.7 6.4-5 0-4.2-2.9-4.9-6.4-4.9h-1v9.9zm0 13.4h2.9c3.5 0 7.1-1 7.1-5.3 0-4.2-4.3-5.1-7.6-5.1h-2.3v10.4h-.1zM97.3 23.7l-3.4 7.5h-4L104.2 0l14.3 31.2h-4l-3.4-7.5H97.3zm6.9-15.5l-5.3 12.1h10.6l-5.3-12.1zM125.1 31.2h-3.8V4.7h-7.1V1.3h18v3.4h-7.1v26.5zM152.2 13.3v-12h3.7v29.9h-3.7V16.8h-14.3v14.4h-3.7V1.3h3.7v12h14.3zM183.8 27.2c-2.3 2.7-5.4 4.7-9 4.7-5 0-9.2-3.7-9.2-8.8 0-3.8 2.4-5.9 5.2-7.9l1.9-1.4c-1.7-1.8-3.3-4-3.3-6.6 0-4.1 3-6.6 6.9-6.6 3.7 0 6.9 2.3 6.9 6.2 0 3.4-2.9 5.6-5.4 7.5l6.2 7.5 3.5-4.1 2.4 2.5-3.7 4.3 5.4 6.6H187l-3.2-3.9zm-9.2-10.5c-2.1 1.4-5.4 3.5-5.4 6.3 0 2.9 2.7 5.5 5.6 5.5 2.8 0 5-2.1 6.9-4l-6.6-8.1-.5.3zm1.7-5.3c1.5-1.2 3.6-2.4 3.6-4.6 0-2.1-1.5-3.3-3.5-3.3-1.8 0-3.3 1.3-3.3 3.2 0 1.5.9 2.6 1.8 3.7l1 1.3.4-.3z"/></g></symbol><symbol id="cb" viewBox="0 0 229.7 32.8"><style>.bst0{fill-rule:evenodd;clip-rule:evenodd;fill:#bab1aa}</style><g id="bCrate_and_Barrel"><path class="bst0" d="M120.7 31.9l-2.3-2.8c-1.8 1.8-5.9 3.7-8.9 3.7-5.1 0-9.4-3.7-9.4-8.4 0-5.9 5.6-9.1 7.3-9.7-1.1-1.4-3.1-3.8-3.1-6.8.1-3.9 2.5-7 7.7-7 4.5 0 7.9 3 7.9 7.3 0 4.9-3.8 6.6-4.9 7.6l3.7 5.2c1-1.3 2-4.4 1.8-4.9h4.9s-.7 6.2-3.5 9.1l5.2 6.8h-6.4v-.1zm-8.5-26.4c-1.5 0-2.8 1.3-2.7 2.5.1 1.7 1.5 2.8 2.4 3.9 1.1-.8 3.1-2 3.1-3.8.1-1.3-1.1-2.6-2.8-2.6zm-1.8 13.1c-4.8 3.2-4.5 5.5-4.5 5.5 0 2.3 2.1 3.5 3.7 3.7 1.8 0 4.5-1.5 5.8-2.7l-5-6.5zM26.3 14.1c-1.1-4.5-5.2-8.2-10-8.2-6 0-10.5 4.8-10.4 10.5.1 5.6 4.5 10 10.4 10 5.6 0 8.9-4.1 9.6-6.8h5.9c-1.3 8.3-9.3 12.7-15.6 12.7C9 32.4 0 26.4 0 16.5 0 7 7.2 0 16.3 0 24 0 31.1 5.9 32.1 14.1h-5.8zM74.1 32.1c-4.6 0-5.5-3.4-5.5-5.2V13.2h-3V8.9h3V2.1h5.9v7h3.8v4.1h-3.8v12.2c0 3.1 3.8 2.1 4.4 2.3v4.4h-4.8zM39 21.7V32h-5.8V9.6h5.6v2.3c.8-1.1 2.5-2.4 4.4-3 1.3-.1 2.5 0 2.5 0v5.5c-2.9-.9-7 .4-6.7 7.3z"/><path class="bst0" d="M83.3 22.1c0 3 2.8 5.2 5.8 5.2 2.1 0 3.4-.8 4.5-2.5h6c-.8 3.9-4.9 7.6-10.3 7.6-6.9 0-11.8-5.2-11.8-12.5 0-5.6 4.2-11.4 11.1-11.3 7.9.1 11.4 6.9 11.3 13.5H83.3zm5.2-8.9c-2.5-.1-4.9 1.8-4.9 4.6h9.8c0-2.7-2.3-4.6-4.9-4.6zM60.6 31.9c0 .1-.1-.8-.4-1.8-1 .8-3.2 2.5-6.8 2.5-3.9 0-8.4-2.4-8.4-7 0-2.8 1.8-6.5 8.2-7.3 3.7-.6 6.5-.3 6.6-2.3.1-.7-.6-3.1-4.2-3.1-1.7 0-3.8.6-4.2 3.2h-5.1c0-3.9 2.4-7.3 9.8-7.3 4.6 0 9.3 2 9.3 7v12.4c.1 1.3.6 3 1 3.7h-5.8zm-10.4-6.4c.1 2.4 3.2 2.8 3.8 2.5 0 0 3.1 0 4.5-1.5.8-1.1 1.3-2.5.8-5.6-5.6 1.2-9.1 1.7-9.1 4.6zM224.1 1.8h5.6v30.1h-5.6V1.8zM194.4 21.8v10.1h-5.8V9.7h5.6V12c1-1.1 2.5-2.5 4.4-3 1.4-.3 2.7 0 2.7 0v5.5c-3.3-.9-7.2.4-6.9 7.3zM180.5 21.8v10.1h-5.9V9.7h5.8V12c1-1.1 2.5-2.5 4.4-3 1.3-.3 2.5 0 2.5 0v5.5c-3-.9-7.1.4-6.8 7.3zM206.5 22.2c0 2.8 2.8 5.1 5.8 5.1 2 0 3.4-.7 4.5-2.5h5.9c-.7 3.9-4.8 7.6-10.1 7.6-6.8 0-11.8-5.2-11.8-12.4 0-5.6 4.2-11.4 11.1-11.3 7.7 0 11.4 6.9 11.1 13.5h-16.5zm5.3-9c-2.7 0-5.1 1.8-5.1 4.6h9.8c.1-2.6-2-4.6-4.7-4.6zM143.2 31.9h-15.8V1.7H141c4.6 0 9.4 2.1 9.4 7.7 0 4.6-3.7 5.6-4.5 6.3 2.7.8 5.6 3.4 5.6 8.3.1 5.4-5.1 7.9-8.3 7.9zm-3.4-25.4H133V14h6.5c1.4 0 4.8-.6 4.8-4.1 0-2.4-2.4-3.4-4.5-3.4zm0 11.9H133v8.9h7.2c1 0 4.8-.8 4.8-4.1 0-1.8-.4-4.8-5.2-4.8zM168.1 31.9c0 .1-.3-.8-.4-1.8-1 .8-3.2 2.5-6.8 2.5-3.9 0-8.4-2.4-8.4-7 0-2.8 1.8-6.3 8.3-7.3 3.4-.6 6.3-.3 6.5-2.3.1-.6-.6-3-4.2-3-1.7 0-3.7.4-4.1 3.2h-5.2c0-3.9 2.7-7.3 9.8-7.3 4.5 0 9.1 2 9.3 7v11.5c0 1 .4 3.5.8 4.4h-5.6v.1zm-9.7-6.4c0 2.4 3.2 2.8 3.8 2.5 0 0 3.1 0 4.4-1.5.8-1.1 1.1-2.4.8-5.6-5.5 1.3-9 1.7-9 4.6z"/></g></symbol><symbol id="target" viewBox="0 0 102.7 125.8"><style>.cst0{fill:#bab1aa}</style><g id="cTarget"><path class="cst0" d="M50 16.5c-18.2 0-33 14.8-33 33s14.8 33 33 33 33-14.8 33-33c0-18.3-14.8-33-33-33m49.5 33C99.5 76.8 77.4 99 50 99 22.7 99 .5 76.9.5 49.5S22.7 0 50 0s49.5 22.1 49.5 49.5"/><path class="cst0" d="M50 32.5c-9.4 0-17 7.6-17 17s7.6 17 17 17 17-7.6 17-17-7.6-17-17-17M5.4 110.6H0v-3.4h14.9v3.4H9.4v14.8h-4zM13.1 125.4h4l1.4-4h6.8l1.4 4h4.1L24 107.3h-4l-6.9 18.1zm8.9-13.7l2.3 6.7h-4.7l2.4-6.7zM32.5 125.4h4v-7.1h4c2 0 2.7.8 3 2.7.2 1.4.1 3.2.6 4.4h4c-.7-1-.7-3.2-.8-4.3-.1-1.8-.7-3.7-2.6-4.2 2-.8 2.9-2.4 2.9-4.6 0-2.7-2.1-5-5.3-5h-9.8v18.1m4-15.1h4.4c1.8 0 2.7.8 2.7 2.5 0 1.8-1 2.6-2.7 2.6h-4.4v-5.1zM63.4 123.3c-1.4 1.8-3.2 2.5-5 2.5-5.6 0-8.9-4.2-8.9-9.4 0-5.4 3.3-9.6 8.9-9.6 3.7 0 7.2 2.3 7.7 6.4h-3.8c-.5-2-2-3-3.8-3-3.6 0-4.9 3-4.9 6.2 0 3 1.3 6.1 4.9 6.1 2.6 0 4.1-1.4 4.3-3.9h-4v-3h7.6v9.8h-2.5l-.5-2.1M69.1 107.2h13.6v3.4h-9.6v3.9h8.8v3.1h-8.8v4.4h9.8v3.4H69.1zM90.1 110.6h-5.5v-3.4h14.9v3.4h-5.4v14.8h-4zM99.6 122.1c.5 0 .9 0 .9-.6 0-.4-.4-.5-.8-.5H99v1.1h.6m-.7 2h-.5v-3.6h1.4c.8 0 1.3.3 1.3 1 0 .6-.4.9-.9 1l1 1.6h-.6l-.9-1.5h-.6v1.5zm.7.8c1.4 0 2.5-1.1 2.5-2.6s-1.1-2.6-2.5-2.6-2.5 1.1-2.5 2.6 1.1 2.6 2.5 2.6m-3.1-2.6c0-1.8 1.4-3.1 3.1-3.1 1.7 0 3.1 1.3 3.1 3.1s-1.4 3.1-3.1 3.1c-1.7 0-3.1-1.3-3.1-3.1"/></g></symbol></svg>