<?xml version="1.0" encoding="utf-8"?>
<!-- Generator: Adobe Illustrator 19.2.1, SVG Export Plug-In . SVG Version: 6.00 Build 0)  -->
<svg version="1.1" id="Layer_1" xmlns="http://www.w3.org/2000/svg" xmlns:xlink="http://www.w3.org/1999/xlink" x="0px" y="0px"
	 viewBox="0 0 102.7 125.8" style="enable-background:new 0 0 102.7 125.8;" xml:space="preserve">
<style type="text/css">
	.st0{fill:#BAB1AA;}
</style>
<g id="Target">
	<g>
		<path class="st0" d="M50,16.5c-18.2,0-33,14.8-33,33c0,18.2,14.8,33,33,33c18.2,0,33-14.8,33-33C83,31.2,68.2,16.5,50,16.5
			 M99.5,49.5c0,27.3-22.1,49.5-49.5,49.5c-27.3,0-49.5-22.1-49.5-49.5C0.5,22.1,22.7,0,50,0C77.3,0,99.5,22.1,99.5,49.5"/>
		<path class="st0" d="M50,32.5c-9.4,0-17,7.6-17,17c0,9.4,7.6,17,17,17c9.4,0,17-7.6,17-17C67,40.1,59.4,32.5,50,32.5"/>
		<polygon class="st0" points="5.4,110.6 0,110.6 0,107.2 14.9,107.2 14.9,110.6 9.4,110.6 9.4,125.4 5.4,125.4 		"/>
		<path class="st0" d="M13.1,125.4h4l1.4-4h6.8l1.4,4h4.1l-6.8-18.1H20L13.1,125.4z M22,111.7L22,111.7l2.3,6.7h-4.7L22,111.7z"/>
		<path class="st0" d="M32.5,125.4h4v-7.1h4c2,0,2.7,0.8,3,2.7c0.2,1.4,0.1,3.2,0.6,4.4h4c-0.7-1-0.7-3.2-0.8-4.3
			c-0.1-1.8-0.7-3.7-2.6-4.2v0c2-0.8,2.9-2.4,2.9-4.6c0-2.7-2.1-5-5.3-5h-9.8V125.4 M36.5,110.3h4.4c1.8,0,2.7,0.8,2.7,2.5
			c0,1.8-1,2.6-2.7,2.6h-4.4V110.3z"/>
		<path class="st0" d="M63.4,123.3c-1.4,1.8-3.2,2.5-5,2.5c-5.6,0-8.9-4.2-8.9-9.4c0-5.4,3.3-9.6,8.9-9.6c3.7,0,7.2,2.3,7.7,6.4
			h-3.8c-0.5-2-2-3-3.8-3c-3.6,0-4.9,3-4.9,6.2c0,3,1.3,6.1,4.9,6.1c2.6,0,4.1-1.4,4.3-3.9h-4v-3h7.6v9.8h-2.5L63.4,123.3"/>
		<polygon class="st0" points="69.1,107.2 82.7,107.2 82.7,110.6 73.1,110.6 73.1,114.5 81.9,114.5 81.9,117.6 73.1,117.6 73.1,122 
			82.9,122 82.9,125.4 69.1,125.4 		"/>
		<polygon class="st0" points="90.1,110.6 84.6,110.6 84.6,107.2 99.5,107.2 99.5,110.6 94.1,110.6 94.1,125.4 90.1,125.4 		"/>
		<path class="st0" d="M99.6,122.1c0.5,0,0.9,0,0.9-0.6c0-0.4-0.4-0.5-0.8-0.5h-0.7v1.1H99.6 M98.9,124.1h-0.5v-3.6h1.4
			c0.8,0,1.3,0.3,1.3,1c0,0.6-0.4,0.9-0.9,1l1,1.6h-0.6l-0.9-1.5h-0.6V124.1z M99.6,124.9c1.4,0,2.5-1.1,2.5-2.6
			c0-1.5-1.1-2.6-2.5-2.6c-1.4,0-2.5,1.1-2.5,2.6C97.1,123.8,98.2,124.9,99.6,124.9 M96.5,122.3c0-1.8,1.4-3.1,3.1-3.1
			c1.7,0,3.1,1.3,3.1,3.1c0,1.8-1.4,3.1-3.1,3.1C97.9,125.4,96.5,124.1,96.5,122.3"/>
	</g>
</g>
</svg>
