<svg id="Layer_1" xmlns="http://www.w3.org/2000/svg" viewBox="0 0 102.7 125.8"><style>.st0{fill:#bab1aa}</style><g id="Target"><path class="st0" d="M50 16.5c-18.2 0-33 14.8-33 33s14.8 33 33 33 33-14.8 33-33c0-18.3-14.8-33-33-33m49.5 33C99.5 76.8 77.4 99 50 99 22.7 99 .5 76.9.5 49.5S22.7 0 50 0s49.5 22.1 49.5 49.5"/><path class="st0" d="M50 32.5c-9.4 0-17 7.6-17 17s7.6 17 17 17 17-7.6 17-17-7.6-17-17-17M5.4 110.6H0v-3.4h14.9v3.4H9.4v14.8h-4zM13.1 125.4h4l1.4-4h6.8l1.4 4h4.1L24 107.3h-4l-6.9 18.1zm8.9-13.7l2.3 6.7h-4.7l2.4-6.7zM32.5 125.4h4v-7.1h4c2 0 2.7.8 3 2.7.2 1.4.1 3.2.6 4.4h4c-.7-1-.7-3.2-.8-4.3-.1-1.8-.7-3.7-2.6-4.2 2-.8 2.9-2.4 2.9-4.6 0-2.7-2.1-5-5.3-5h-9.8v18.1m4-15.1h4.4c1.8 0 2.7.8 2.7 2.5 0 1.8-1 2.6-2.7 2.6h-4.4v-5.1zM63.4 123.3c-1.4 1.8-3.2 2.5-5 2.5-5.6 0-8.9-4.2-8.9-9.4 0-5.4 3.3-9.6 8.9-9.6 3.7 0 7.2 2.3 7.7 6.4h-3.8c-.5-2-2-3-3.8-3-3.6 0-4.9 3-4.9 6.2 0 3 1.3 6.1 4.9 6.1 2.6 0 4.1-1.4 4.3-3.9h-4v-3h7.6v9.8h-2.5l-.5-2.1M69.1 107.2h13.6v3.4h-9.6v3.9h8.8v3.1h-8.8v4.4h9.8v3.4H69.1zM90.1 110.6h-5.5v-3.4h14.9v3.4h-5.4v14.8h-4zM99.6 122.1c.5 0 .9 0 .9-.6 0-.4-.4-.5-.8-.5H99v1.1h.6m-.7 2h-.5v-3.6h1.4c.8 0 1.3.3 1.3 1 0 .6-.4.9-.9 1l1 1.6h-.6l-.9-1.5h-.6v1.5zm.7.8c1.4 0 2.5-1.1 2.5-2.6s-1.1-2.6-2.5-2.6-2.5 1.1-2.5 2.6 1.1 2.6 2.5 2.6m-3.1-2.6c0-1.8 1.4-3.1 3.1-3.1 1.7 0 3.1 1.3 3.1 3.1s-1.4 3.1-3.1 3.1c-1.7 0-3.1-1.3-3.1-3.1"/></g></svg>